<?xml version="1.0" encoding="UTF-8"?>
<!DOCTYPE svg PUBLIC "-//W3C//DTD SVG 1.1//EN" "http://www.w3.org/Graphics/SVG/1.1/DTD/svg11.dtd">
<svg xmlns="http://www.w3.org/2000/svg" version="1.1" width="512px" height="512px" style="shape-rendering:geometricPrecision; text-rendering:geometricPrecision; image-rendering:optimizeQuality; fill-rule:evenodd; clip-rule:evenodd" xmlns:xlink="http://www.w3.org/1999/xlink">
<g><path style="opacity:1" fill="#f44336" d="M 47.5,-0.5 C 186.167,-0.5 324.833,-0.5 463.5,-0.5C 489.14,5.80667 505.14,21.8067 511.5,47.5C 511.5,186.167 511.5,324.833 511.5,463.5C 505.14,489.193 489.14,505.193 463.5,511.5C 324.833,511.5 186.167,511.5 47.5,511.5C 21.8067,505.14 5.80667,489.14 -0.5,463.5C -0.5,324.833 -0.5,186.167 -0.5,47.5C 5.80667,21.86 21.8067,5.85998 47.5,-0.5 Z"/></g>
<g><path style="opacity:1" fill="#faf8f7" d="M 169.5,155.5 C 177.124,154.449 184.124,155.949 190.5,160C 212.014,181.681 233.68,203.181 255.5,224.5C 278.014,202.152 300.681,179.985 323.5,158C 337.629,152.152 348.129,155.986 355,169.5C 356.549,177.119 355.216,184.119 351,190.5C 329.319,212.014 307.819,233.68 286.5,255.5C 308.848,278.014 331.015,300.681 353,323.5C 357.686,334.3 355.853,343.8 347.5,352C 338.234,356.977 329.234,356.644 320.5,351C 298.986,329.319 277.32,307.819 255.5,286.5C 232.986,308.848 210.319,331.015 187.5,353C 176.634,357.788 167.134,355.954 159,347.5C 154.023,338.234 154.356,329.234 160,320.5C 181.681,298.986 203.181,277.32 224.5,255.5C 202.152,232.986 179.985,210.319 158,187.5C 152.017,173.158 155.85,162.492 169.5,155.5 Z"/></g>
</svg>
