<svg width="155" height="94" viewBox="0 0 155 94" fill="none" xmlns="http://www.w3.org/2000/svg">
    <rect x="11.1646" y="6.33826" width="142" height="79" rx="29" transform="rotate(3 11.1646 6.33826)" fill="#FFD6CC" stroke="#DEAEA0" stroke-width="2"/>
    <rect x="6.16456" y="1.33826" width="142" height="79" rx="29" transform="rotate(3 6.16456 1.33826)" fill="white" stroke="black" stroke-width="2"/>
    <circle cx="75" cy="31" r="14.5" fill="#FFD6CC" stroke="black"/>
    <path d="M75.7567 24.7502C74.4653 24.685 73.1829 24.9967 72.0655 25.6474C70.9482 26.2981 70.0441 27.2597 69.4636 28.415C68.883 29.5704 68.6509 30.8696 68.7957 32.1545C68.9404 33.4394 69.4556 34.6545 70.2786 35.6518C70.8667 36.3602 71.595 36.9392 72.4179 37.3522C73.2407 37.7652 74.1402 38.0033 75.0596 38.0515C75.979 38.0997 76.8985 37.9569 77.76 37.6322C78.6215 37.3074 79.4064 36.8078 80.0652 36.1647C80.988 35.2589 81.6274 34.1043 81.9056 32.8416C82.1839 31.5789 82.0889 30.2625 81.6323 29.0528C81.1757 27.8431 80.3771 26.7922 79.3339 26.0283C78.2907 25.2644 77.0478 24.8203 75.7567 24.7502ZM75.1287 36.7337C73.7496 36.6594 72.4532 36.053 71.5122 35.0422C71.8516 34.3253 72.3964 33.7255 73.0774 33.319C73.7584 32.9124 74.5449 32.7176 75.337 32.7591C76.129 32.8006 76.8908 33.0766 77.5256 33.5521C78.1604 34.0276 78.6395 34.681 78.9021 35.4294C77.8606 36.3364 76.5079 36.8039 75.1287 36.7337ZM74.1461 30.0064C74.1599 29.7431 74.2515 29.4897 74.4092 29.2784C74.567 29.0672 74.7839 28.9074 75.0325 28.8194C75.2811 28.7313 75.5502 28.719 75.8058 28.7839C76.0614 28.8488 76.292 28.9881 76.4684 29.184C76.6449 29.38 76.7593 29.6239 76.7971 29.8849C76.835 30.1459 76.7946 30.4122 76.681 30.6502C76.5675 30.8882 76.3859 31.0873 76.1593 31.2221C75.9327 31.3569 75.6711 31.4215 75.4078 31.4077C75.0547 31.3892 74.7233 31.2312 74.4867 30.9684C74.2501 30.7056 74.1276 30.3596 74.1461 30.0064ZM79.8686 34.3118C79.3271 33.2632 78.4531 32.4238 77.3834 31.9252C77.7425 31.5586 77.9883 31.0961 78.0911 30.5933C78.1939 30.0905 78.1494 29.5688 77.9631 29.0906C77.7767 28.6125 77.4563 28.1982 77.0403 27.8977C76.6244 27.5971 76.1305 27.4229 75.618 27.3961C75.1055 27.3692 74.5962 27.4908 74.1511 27.7462C73.706 28.0017 73.3441 28.3802 73.1087 28.8362C72.8734 29.2923 72.7746 29.8065 72.8243 30.3173C72.874 30.8281 73.0701 31.3137 73.3889 31.7158C72.273 32.1 71.316 32.8434 70.6679 33.8296C70.2361 32.9973 70.0338 32.065 70.0818 31.1286C70.1558 29.716 70.7879 28.3908 71.8391 27.4443C72.8903 26.4978 74.2744 26.0077 75.6869 26.0817C77.0995 26.1557 78.4248 26.7879 79.3712 27.839C80.3177 28.8902 80.8078 30.2743 80.7338 31.6868C80.6836 32.6231 80.385 33.5292 79.8686 34.3118Z" fill="black"/>
</svg>
