<svg width="360" height="640" viewBox="0 0 360 640" fill="none" xmlns="http://www.w3.org/2000/svg">
    <mask id="mask0_70:77" style="mask-type:alpha" maskUnits="userSpaceOnUse" x="0" y="0" width="360" height="640">
        <rect x="6.10352e-05" y="-6.10352e-05" width="360" height="640" fill="white"/>
    </mask>
    <g mask="url(#mask0_70:77)">
        <path d="M202.18 663.614C211.459 657.653 219.449 649.335 223.825 639.125C228.285 628.709 228.639 617.073 226.374 606.088C223.741 593.318 217.557 581.608 210.49 570.767C202.933 559.175 194.503 548.115 186.012 537.177C181.855 531.822 177.682 526.491 173.455 521.191C169.974 516.809 166.356 512.464 162.15 508.746C159.717 506.604 154.191 502.571 153.878 502.378C133.875 490.015 109.662 479.839 85.8545 486.834C79.5346 488.688 73.8034 491.911 68.2228 495.319C62.5404 498.801 56.9198 502.29 50.7988 504.962C39.2208 510.01 26.841 512.82 14.7947 516.458C3.19328 519.968 -8.38695 524.313 -17.9576 531.964C-26.1138 538.497 -32.1384 547.274 -35.8345 556.991C-39.4986 566.588 -40.9009 577.035 -40.2165 587.252C-39.4328 599.064 -35.7093 610.529 -30.1274 620.921C-24.0804 632.193 -15.8709 642.245 -6.56618 650.976C1.82202 658.843 11.1787 665.892 21.5113 671.013C31.6425 676.035 42.6687 678.99 54.033 678.762C60.3088 678.628 66.5389 677.717 72.7444 676.863C79.1987 675.966 85.6537 675.269 92.1767 675.065C117.746 674.29 143.344 679.028 168.827 675.359C180.585 673.669 192.126 670.079 202.18 663.614Z" fill="#E7F2D7"/>
        <path d="M-23.6081 482.136L-23.6048 482.135C-5.49626 474.469 11.1572 463.796 27.7548 453.159C31.1987 450.951 34.6401 448.746 38.0916 446.569C58.1978 433.888 78.6659 422.167 102.061 416.646C112.973 414.069 124.282 413.045 135.405 414.264L135.405 414.264C146.888 415.51 157.99 419.085 168.488 423.859C182.839 430.411 196.015 438.989 209.22 447.586C215.403 451.612 221.593 455.642 227.912 459.469C246.975 471.022 267.234 480.263 289.775 482.069L289.775 482.069C305.571 483.324 321.336 481.688 337.023 480.06C342.404 479.501 347.775 478.944 353.135 478.505C375.191 476.701 397.426 477.231 417.695 486.86L417.695 486.86C440.069 497.473 457.67 516.162 471.441 536.455C496.962 574.128 512.238 618.919 516.055 664.136L516.056 664.136C516.53 669.674 516.804 675.205 516.945 680.734C516.952 681.115 517.111 681.432 517.369 681.645C517.616 681.85 517.926 681.935 518.215 681.928C518.504 681.921 518.808 681.821 519.046 681.607C519.294 681.383 519.441 681.06 519.434 680.678L519.434 680.678L519.434 680.675C518.331 635.253 505.851 590.221 483.236 550.737C471.264 529.814 456.256 509.867 436.663 495.416L436.663 495.416C427.008 488.303 416.256 482.607 404.692 479.247C394.65 476.311 384.199 475.206 373.779 475.137C363.001 475.04 352.294 475.996 341.618 477.088C340.005 477.253 338.392 477.421 336.78 477.589C327.719 478.533 318.676 479.475 309.601 479.86L309.6 479.86C298.799 480.335 287.915 480.003 277.31 477.884L277.309 477.884C265.71 475.594 254.646 471.191 244.126 465.759L244.126 465.758C234.088 460.591 224.303 454.41 214.5 448.087C213.305 447.316 212.109 446.543 210.913 445.77C202.304 440.204 193.655 434.613 184.806 429.605C164.643 418.196 143.372 409.778 118.945 411.528C94.7513 413.251 73.3544 422.821 52.9489 434.661C44.0935 439.8 35.4153 445.371 26.776 450.918C25.4624 451.762 24.1497 452.604 22.8375 453.445C12.8897 459.817 2.96274 466.066 -7.18104 471.51L-6.94462 471.951L-7.18131 471.51C-12.7931 474.526 -18.5143 477.309 -24.4096 479.791C-25.1385 480.095 -25.3096 480.838 -25.1515 481.379C-25.0713 481.653 -24.8965 481.926 -24.6149 482.091C-24.3172 482.265 -23.9595 482.282 -23.6081 482.136Z" fill="#E7F2D7" stroke="#E7F2D7"/>
        <path d="M-47.3993 187.335C-48.5273 177.567 -48.6563 167.636 -47.4455 157.946L-47.4455 157.946C-46.3311 149.069 -43.8787 140.092 -38.5059 132.556C-29.4944 119.887 -13.9095 115.172 1.94205 113.419C7.31405 112.819 12.7653 112.488 18.204 112.157C21.0114 111.986 23.8154 111.816 26.6035 111.609C34.8114 110.999 42.9167 110.071 50.7109 107.895L50.8454 108.376L50.711 107.894C69.5202 102.645 82.2096 88.8894 90.7352 73.3483L91.1736 73.5887L90.7353 73.3482C92.8915 69.4196 94.7387 65.3607 96.5946 61.2828L96.8825 60.6504C98.8333 56.3662 100.811 52.0693 103.172 47.9293C107.615 40.0893 113.608 33.2718 121.919 28.5486C138.774 18.9302 159.808 18.4285 179.334 19.4335C182.579 19.5994 185.817 19.802 189.052 20.0044C197.602 20.5392 206.124 21.0723 214.653 20.9211L214.653 20.9211C224.7 20.7486 234.657 19.4963 244.313 17.2399C262.732 12.9222 279.93 4.96059 294.377 -5.98351C298.086 -8.79754 301.594 -11.8089 304.897 -14.9987L304.899 -15.0006C305.365 -15.4464 305.977 -15.2999 306.31 -15.0305C306.483 -14.8906 306.64 -14.6786 306.683 -14.412C306.729 -14.1222 306.627 -13.8378 306.403 -13.6226C293.559 -1.29206 277.735 8.3368 260.234 14.5978C241.68 21.2458 222.027 23.5282 201.874 22.6814C197.584 22.5011 193.278 22.2354 188.969 21.9694C171.501 20.8913 153.983 19.81 137.353 24.4061L137.353 24.4063C128.238 26.9167 119.707 31.1365 113.384 37.5102L113.383 37.511C106.563 44.3553 102.613 53.0587 98.7112 61.6583C98.6046 61.8933 98.498 62.1282 98.3914 62.3629L97.9361 62.1562L98.3913 62.3631C91.2133 78.1523 82.0262 94.1062 65.7833 103.733L65.7829 103.733C51.8513 111.973 34.7383 113.092 18.4776 114.114C17.8578 114.153 17.236 114.192 16.6126 114.23C1.34678 115.179 -14.8849 116.188 -27.2099 124.415C-43.8896 135.57 -46.4546 156.385 -46.1472 174.476C-45.9694 184.734 -44.64 195.022 -41.9072 205.057C-39.5691 213.591 -35.9863 221.763 -32.3767 229.995C-31.9524 230.963 -31.5277 231.932 -31.1046 232.902C-27.2376 241.768 -23.6305 250.907 -22.4359 260.416L-22.4359 260.416C-21.1489 270.679 -22.587 280.937 -24.8477 290.809L-24.8479 290.81C-26.019 295.895 -27.4184 300.913 -28.8142 305.918L-28.8148 305.92C-28.8149 305.92 -28.8149 305.921 -28.815 305.921C-28.9936 306.572 -29.6392 306.703 -30.0453 306.622C-30.2628 306.578 -30.4967 306.468 -30.664 306.266C-30.8454 306.047 -30.9184 305.754 -30.8342 305.445L-30.8334 305.442C-27.9787 295.233 -25.1217 284.982 -24.2739 274.416L-24.2738 274.415C-23.4317 264.112 -25.1035 254.081 -28.7415 244.133C-30.4327 239.529 -32.4056 235.013 -34.4026 230.489C-34.5387 230.181 -34.6749 229.873 -34.8111 229.564C-36.6721 225.352 -38.5386 221.126 -40.1912 216.831L-40.1912 216.831C-43.8726 207.257 -46.2489 197.332 -47.3993 187.335ZM-47.3993 187.335L-46.9026 187.278M-47.3993 187.335L-46.9026 187.278M-46.9026 187.278C-45.7569 197.234 -43.3902 207.119 -39.7246 216.652L1.99753 113.916C-13.8195 115.665 -29.2164 120.358 -38.0988 132.847C-43.4049 140.289 -45.8404 149.174 -46.9494 158.008C-48.1545 167.652 -48.0268 177.543 -46.9026 187.278ZM305.244 -14.639C301.927 -11.4355 298.404 -8.4111 294.679 -5.58494C280.173 5.40355 262.91 13.394 244.426 17.7268C234.737 19.9912 224.745 21.2479 214.662 21.4211C206.111 21.5726 197.559 21.0376 189.003 20.5023C185.772 20.3002 182.54 20.0981 179.308 19.9328C159.786 18.9281 138.884 19.4429 122.167 28.9828C113.949 33.6527 108.015 40.3972 103.606 48.177L305.244 -14.639ZM305.244 -14.639C305.705 -15.0795 306.517 -14.4238 306.056 -13.9833C293.267 -1.7044 277.504 7.88841 260.065 14.1271C241.584 20.7492 221.997 23.0266 201.895 22.1819C197.629 22.0026 193.338 21.7375 189.039 21.4719C171.563 20.3924 153.938 19.3036 137.22 23.9242M305.244 -14.639L137.22 23.9242M137.22 23.9242C128.049 26.4501 119.431 30.7045 113.029 37.1581L137.22 23.9242ZM-30.3518 305.577C-27.4993 295.375 -24.6278 285.078 -23.7755 274.456C-22.9266 264.07 -24.6132 253.966 -28.2721 243.961L-30.3518 305.577ZM-30.3518 305.577C-30.5155 306.176 -29.4607 306.387 -29.2971 305.788C-27.9003 300.78 -26.5036 295.771 -25.3351 290.698C-23.0799 280.849 -21.6555 270.658 -22.932 260.478C-24.1169 251.047 -27.6973 241.965 -31.5629 233.102L-30.3518 305.577ZM65.5284 103.303C51.7182 111.471 34.7325 112.591 18.4463 113.615C17.8103 113.655 17.1719 113.695 16.5315 113.735C1.30969 114.68 -15.047 115.695 -27.4875 123.999C-44.4062 135.314 -46.9546 156.389 -46.6471 174.484L65.5284 103.303Z" fill="#FFEFEB" stroke="#FFEFEB"/>
        <path d="M378.239 144.456C387.495 138.473 395.905 130.968 401.293 122.682C406.785 114.23 408.716 105.576 408.176 97.8501C407.548 88.8689 403.546 81.2754 398.623 74.4733C393.358 67.2006 387.226 60.4705 381.022 53.8397C377.984 50.5939 374.929 47.3679 371.82 44.1742C369.263 41.5318 366.576 38.9397 363.267 36.911C361.353 35.7433 356.888 33.7069 356.63 33.6179C340.162 27.897 319.566 24.5091 296.964 33.7328C290.965 36.1788 285.312 39.5356 279.769 43.004C274.125 46.5437 268.535 50.0784 262.603 53.0951C251.384 58.7958 239.746 62.9812 228.297 67.7206C217.269 72.2899 206.146 77.4723 196.391 84.7537C188.077 90.9682 181.389 98.4772 176.687 106.283C172.031 113.995 169.313 121.948 168.523 129.377C167.602 137.967 169.401 145.799 173.038 152.521C176.975 159.815 183.046 165.839 190.294 170.701C196.83 175.081 204.358 178.692 213.039 180.713C221.552 182.695 231.163 182.997 241.522 180.892C247.243 179.724 253.03 177.989 258.788 176.301C264.777 174.538 270.739 172.923 276.695 171.661C300.037 166.731 322.643 165.867 346.307 158.814C357.226 155.562 368.21 150.944 378.239 144.456Z" fill="#FFEFEB"/>
    </g>
</svg>
