<svg width="360" height="640" viewBox="0 0 360 640" fill="none" xmlns="http://www.w3.org/2000/svg">
    <mask id="mask0_70:77" style="mask-type:alpha" maskUnits="userSpaceOnUse" x="-1" y="-1" width="362" height="642">
        <rect x="359.981" y="640.011" width="360" height="640" transform="rotate(-179.997 359.981 640.011)" fill="white"/>
    </mask>
    <g mask="url(#mask0_70:77)">
        <path d="M157.841 -11.9996C148.561 -6.03978 140.571 2.27787 136.194 12.4876C131.734 22.9032 131.378 34.5397 133.643 45.525C136.275 58.2945 142.459 70.0047 149.525 80.8468C157.081 92.4394 165.511 103.499 174.001 114.438C178.158 119.793 182.331 125.125 186.557 130.425C190.038 134.807 193.655 139.152 197.861 142.87C200.294 145.013 205.82 149.046 206.133 149.239C226.135 161.604 250.348 171.781 274.156 164.787C280.476 162.934 286.207 159.711 291.788 156.303C297.47 152.821 303.091 149.333 309.212 146.661C320.791 141.614 333.171 138.804 345.217 135.167C356.819 131.658 368.399 127.314 377.97 119.664C386.127 113.131 392.152 104.354 395.849 94.6374C399.513 85.04 400.916 74.5941 400.233 64.3762C399.45 52.5641 395.727 41.0993 390.145 30.7072C384.099 19.4347 375.89 9.38188 366.586 0.650681C358.198 -7.21659 348.842 -14.2663 338.51 -19.3882C328.379 -24.411 317.353 -27.3661 305.989 -27.139C299.713 -27.0058 293.483 -26.0948 287.277 -25.241C280.823 -24.3441 274.368 -23.648 267.845 -23.4439C242.275 -22.6708 216.678 -27.4105 191.195 -23.7431C179.436 -22.0532 167.895 -18.4641 157.841 -11.9996Z" fill="#E7F2D7"/>
        <path d="M499.612 264.498L499.609 264.5C481.5 272.165 464.846 282.837 448.248 293.473C444.804 295.68 441.362 297.885 437.91 300.062C417.803 312.742 397.335 324.461 373.939 329.981C363.027 332.557 351.718 333.58 340.595 332.361L340.595 332.361C329.112 331.115 318.011 327.539 307.513 322.764C293.162 316.211 279.987 307.632 266.782 299.034C260.599 295.008 254.41 290.978 248.091 287.15C229.029 275.596 208.77 266.354 186.229 264.547L186.229 264.547C170.433 263.291 154.668 264.926 138.981 266.553C133.6 267.111 128.229 267.668 122.869 268.107C100.812 269.91 78.5779 269.378 58.3096 259.748L58.3094 259.748C35.9361 249.134 18.3357 230.443 4.56661 210.15C-20.9527 172.476 -36.2258 127.683 -40.0405 82.4667L-40.0405 82.4661C-40.5147 76.9284 -40.7886 71.3969 -40.929 65.8684C-40.9364 65.4873 -41.0951 65.1701 -41.3527 64.957C-41.6002 64.7524 -41.9098 64.6669 -42.1986 64.6738C-42.4875 64.6808 -42.7922 64.781 -43.0302 64.9956C-43.2781 65.2191 -43.4251 65.5424 -43.4183 65.9243L-43.4183 65.9243L-43.4182 65.9274C-42.3178 111.349 -29.8403 156.382 -7.22787 195.867C4.74262 216.791 19.7499 236.739 39.3422 251.191L39.3424 251.191C48.9962 258.304 59.7486 264.001 71.3119 267.361C81.354 270.298 91.8049 271.404 102.224 271.474C113.002 271.572 123.71 270.616 134.385 269.525C135.999 269.36 137.612 269.192 139.224 269.024C148.285 268.081 157.328 267.139 166.403 266.755L166.404 266.755C177.205 266.28 188.089 266.613 198.694 268.732L198.695 268.732C210.294 271.023 221.357 275.427 231.877 280.86L231.877 280.86C241.915 286.028 251.699 292.21 261.502 298.533C262.697 299.304 263.893 300.077 265.089 300.851C273.698 306.417 282.346 312.009 291.195 317.017C311.357 328.428 332.627 336.847 357.055 335.098C381.249 333.377 402.646 323.808 423.052 311.969C431.908 306.831 440.587 301.26 449.226 295.713C450.54 294.87 451.853 294.027 453.165 293.187C463.113 286.815 473.04 280.567 483.185 275.124L482.948 274.683L483.185 275.123C488.797 272.108 494.518 269.325 500.414 266.843C501.142 266.539 501.314 265.796 501.156 265.256C501.075 264.981 500.901 264.709 500.619 264.544C500.321 264.37 499.964 264.352 499.612 264.498Z" fill="#E7F2D7" stroke="#E7F2D7"/>
        <path d="M407.391 464.294C408.519 474.062 408.647 483.993 407.436 493.683L407.436 493.683C406.321 502.56 403.868 511.536 398.495 519.072C389.482 531.741 373.897 536.455 358.046 538.207C352.674 538.807 347.222 539.138 341.784 539.468C338.976 539.639 336.172 539.809 333.384 540.016C325.176 540.625 317.071 541.553 309.276 543.729L309.142 543.247L309.276 543.729C290.467 548.977 277.777 562.732 269.25 578.272L268.812 578.032L269.25 578.273C267.094 582.201 265.246 586.26 263.39 590.338L263.102 590.97C261.151 595.254 259.173 599.551 256.812 603.691C252.369 611.53 246.375 618.348 238.063 623.07C221.208 632.688 200.174 633.188 180.648 632.182C177.404 632.016 174.165 631.813 170.93 631.61C162.38 631.075 153.858 630.542 145.329 630.692L145.329 630.692C135.282 630.864 125.325 632.116 115.669 634.372C97.2499 638.688 80.0513 646.649 65.6032 657.592C61.8945 660.406 58.3866 663.417 55.0832 666.607L55.0813 666.608C54.6145 667.054 54.0035 666.908 53.6699 666.638C53.4966 666.498 53.3398 666.286 53.2975 666.02C53.2514 665.73 53.3528 665.446 53.5775 665.23C66.4215 652.901 82.2462 643.273 99.748 637.013C118.302 630.366 137.955 628.085 158.109 628.933C162.398 629.113 166.704 629.379 171.013 629.645C188.481 630.725 205.999 631.807 222.629 627.212L222.629 627.212C231.745 624.702 240.276 620.483 246.6 614.109L246.6 614.108C253.421 607.265 257.371 598.561 261.273 589.962C261.38 589.727 261.487 589.492 261.593 589.257L262.049 589.464L261.593 589.257C268.772 573.468 277.96 557.515 294.204 547.889L294.204 547.889C308.136 539.65 325.249 538.532 341.51 537.511C342.13 537.472 342.752 537.433 343.375 537.395C358.641 536.447 374.873 535.439 387.198 527.213C403.879 516.058 406.445 495.244 406.139 477.153C405.961 466.895 404.633 456.607 401.9 446.572C399.563 438.037 395.981 429.866 392.371 421.633C391.947 420.665 391.522 419.696 391.099 418.726C387.233 409.86 383.626 400.721 382.432 391.212L382.432 391.212C381.146 380.948 382.585 370.691 384.846 360.818L384.846 360.818C386.018 355.733 387.417 350.715 388.813 345.71L388.814 345.708C388.814 345.708 388.814 345.707 388.814 345.707C388.993 345.056 389.638 344.925 390.045 345.006C390.262 345.05 390.496 345.16 390.663 345.362C390.845 345.581 390.918 345.874 390.833 346.183L390.833 346.186C387.977 356.395 385.12 366.646 384.271 377.212L384.271 377.213C383.428 387.515 385.1 397.546 388.737 407.495C390.428 412.099 392.401 416.615 394.397 421.139C394.533 421.447 394.67 421.756 394.806 422.064C396.666 426.277 398.533 430.502 400.185 434.797L400.185 434.797C403.866 444.371 406.242 454.297 407.391 464.294ZM407.391 464.294L406.895 464.351M407.391 464.294L406.895 464.351M406.895 464.351C405.75 454.395 403.384 444.51 399.718 434.977L357.99 537.71C373.807 535.962 389.204 531.269 398.088 518.782C403.394 511.34 405.83 502.455 406.94 493.621C408.145 483.977 408.018 474.086 406.895 464.351ZM54.7359 666.247C58.0535 663.044 61.5766 660.019 65.3013 657.193C79.808 646.206 97.0714 638.216 115.556 633.885C125.245 631.621 135.238 630.365 145.32 630.192C153.871 630.041 162.423 630.577 170.98 631.113C174.21 631.315 177.442 631.517 180.674 631.683C200.196 632.689 221.098 632.175 237.815 622.636C246.034 617.967 251.969 611.223 256.377 603.443L54.7359 666.247ZM54.7359 666.247C54.2748 666.687 53.4626 666.032 53.9237 665.591C66.714 653.313 82.4772 643.721 99.9166 637.484C118.398 630.863 137.985 628.586 158.088 629.432C162.353 629.612 166.644 629.877 170.943 630.143C188.419 631.224 206.044 632.313 222.762 627.694M54.7359 666.247L222.762 627.694M222.762 627.694C231.934 625.168 240.551 620.914 246.955 614.461L222.762 627.694ZM390.351 346.051C387.498 356.253 384.626 366.55 383.773 377.172C382.923 387.558 384.609 397.662 388.268 407.667L390.351 346.051ZM390.351 346.051C390.515 345.452 389.46 345.241 389.296 345.84C387.899 350.848 386.502 355.856 385.333 360.93C383.078 370.778 381.653 380.97 382.929 391.15C384.113 400.581 387.693 409.663 391.558 418.526L390.351 346.051ZM294.459 548.32C308.269 540.152 325.255 539.033 341.541 538.01C342.177 537.97 342.816 537.93 343.456 537.891C358.678 536.946 375.035 535.932 387.476 527.629C404.395 516.315 406.945 495.24 406.638 477.145L294.459 548.32Z" fill="#FFEFEB" stroke="#FFEFEB"/>
        <path d="M-18.2497 507.148C-27.5059 513.13 -35.9165 520.634 -41.3051 528.92C-46.7975 537.372 -48.7287 546.025 -48.1887 553.752C-47.5615 562.733 -43.5604 570.327 -38.6381 577.129C-33.3734 584.402 -27.2411 591.133 -21.0378 597.764C-18 601.01 -14.945 604.236 -11.8366 607.43C-9.27958 610.072 -6.59263 612.665 -3.284 614.693C-1.36952 615.861 3.09502 617.898 3.35276 617.987C19.8201 623.709 40.4169 627.098 63.0185 617.876C69.0179 615.43 74.6715 612.074 80.2141 608.605C85.8592 605.066 91.4492 601.532 97.381 598.515C108.6 592.815 120.239 588.631 131.688 583.892C142.716 579.323 153.84 574.142 163.595 566.861C171.91 560.647 178.598 553.138 183.3 545.333C187.957 537.621 190.675 529.668 191.466 522.239C192.387 513.649 190.588 505.817 186.952 499.094C183.016 491.8 176.945 485.776 169.697 480.914C163.162 476.534 155.634 472.922 146.952 470.901C138.44 468.918 128.829 468.615 118.47 470.719C112.749 471.887 106.961 473.622 101.204 475.31C95.2146 477.072 89.2525 478.686 83.2966 479.949C59.9537 484.878 37.3476 485.74 13.6831 492.791C2.76394 496.043 -8.21986 500.66 -18.2497 507.148Z" fill="#FFEFEB"/>
    </g>
</svg>
