<svg width="155" height="94" viewBox="0 0 155 94" fill="none" xmlns="http://www.w3.org/2000/svg">
    <rect x="11.1646" y="6.33829" width="142" height="79" rx="29" transform="rotate(3 11.1646 6.33829)" fill="#FFD6CC" stroke="#DEAEA0" stroke-width="2"/>
    <rect x="6.16456" y="1.33829" width="142" height="79" rx="29" transform="rotate(3 6.16456 1.33829)" fill="white" stroke="black" stroke-width="2"/>
    <circle cx="75" cy="31" r="14.5" fill="#FFD6CC" stroke="black"/>
    <path d="M81.4118 26.9254C80.6696 26.4843 79.7841 26.3516 78.9452 26.5558C78.949 25.7137 78.6286 24.9025 78.0503 24.2903C77.472 23.6781 76.6803 23.3121 75.8393 23.268C74.9983 23.2239 74.1727 23.5052 73.5336 24.0536C72.8945 24.6019 72.4909 25.3753 72.4067 26.2131C71.596 25.9219 70.7045 25.9532 69.9162 26.3004C69.3351 26.568 68.845 26.9999 68.5064 27.5427C68.1677 28.0856 67.9954 28.7156 68.0106 29.3552C68.0258 29.9948 68.2278 30.616 68.5918 31.1422C68.9559 31.6683 69.4659 32.0764 70.0591 32.3161C69.6447 32.8446 69.4015 33.4868 69.3618 34.1572C69.3552 34.3456 69.3629 34.5343 69.3848 34.7217C69.471 35.4889 69.8272 36.2005 70.3897 36.7293C70.9521 37.2582 71.6843 37.5699 72.4554 37.6088C72.6144 37.6281 72.7745 37.6365 72.9347 37.6339C73.7979 37.5439 74.5913 37.119 75.1447 36.4505C75.6311 37.1622 76.3756 37.6565 77.2204 37.8285C77.3794 37.8478 77.5396 37.8562 77.6997 37.8536C78.2976 37.8843 78.8923 37.7502 79.4192 37.4661C79.9461 37.1819 80.3849 36.7586 80.6877 36.2423C80.9906 35.7259 81.1459 35.1364 81.1367 34.5378C81.1276 33.9393 80.9543 33.3547 80.6357 32.8479C81.2535 32.6753 81.8068 32.3247 82.2269 31.84C82.6469 31.3552 82.9151 30.7576 82.998 30.1216C83.081 29.4855 82.9751 28.8391 82.6934 28.2628C82.4118 27.6866 81.9669 27.2058 81.4141 26.8805L81.4118 26.9254ZM74.4925 25.1058C74.8439 24.8029 75.2987 24.6473 75.762 24.6716C76.2253 24.6959 76.6613 24.8981 76.9791 25.2361C77.2212 25.5053 77.3775 25.8406 77.4283 26.199C77.4791 26.5575 77.4219 26.9229 77.2642 27.2488L77.0463 27.6805L76.5292 28.089C76.2307 27.9687 75.9151 27.8964 75.5941 27.8747C75.1788 27.8534 74.7637 27.9186 74.3749 28.0662L74.0061 27.078C73.8782 26.7387 73.8561 26.3685 73.943 26.0164C74.0298 25.6642 74.2214 25.3467 74.4925 25.1058ZM69.6553 29.9893C69.5074 29.6126 69.4924 29.1968 69.6129 28.8104C69.7334 28.4241 69.9821 28.0904 70.3179 27.8646C70.6537 27.6388 71.0566 27.5343 71.4598 27.5685C71.863 27.6026 72.2426 27.7733 72.5356 28.0524L72.8857 28.3937L73.1165 29.0066C72.715 29.489 72.4783 30.0871 72.4412 30.7136C72.4265 30.8253 72.4205 30.938 72.4236 31.0507L72.0116 31.0291L71.3793 31.056C71.0175 31.0751 70.6585 30.9832 70.3503 30.7926C70.0422 30.6019 69.7997 30.3217 69.6553 29.9893ZM74.3599 34.8021C74.2487 35.1972 74.0049 35.542 73.6693 35.7783C73.3337 36.0146 72.927 36.1281 72.5175 36.0996C72.1081 36.0711 71.721 35.9023 71.4214 35.6218C71.1218 35.3412 70.9281 34.966 70.8728 34.5593C70.8711 34.4542 70.8766 34.3491 70.8893 34.2447C70.908 33.9405 71.0059 33.6464 71.1734 33.3916C71.3409 33.1369 71.5721 32.9304 71.8441 32.7927L72.2402 32.5431L72.9257 32.5039C73.3239 33.1241 73.9365 33.5759 74.6466 33.7732L74.3599 34.8021ZM75.3586 32.3686C75.0623 32.353 74.7773 32.25 74.5396 32.0725C74.3019 31.895 74.1222 31.651 74.0231 31.3713C73.9241 31.0917 73.9102 30.7889 73.9833 30.5014C74.0563 30.2139 74.2129 29.9544 74.4334 29.7559C74.6539 29.5574 74.9283 29.4287 75.2219 29.3862C75.5155 29.3436 75.8151 29.389 76.0829 29.5168C76.3506 29.6445 76.5745 29.8487 76.7262 30.1037C76.8779 30.3587 76.9506 30.6529 76.935 30.9491C76.9142 31.3464 76.7364 31.7192 76.4408 31.9853C76.1452 32.2515 75.7559 32.3894 75.3586 32.3686ZM79.5912 35.0087C79.49 35.4617 79.2149 35.8567 78.8253 36.1088C78.4356 36.3609 77.9625 36.4499 77.5078 36.3565C77.1494 36.2867 76.8208 36.1091 76.5661 35.8475C76.3114 35.5858 76.1427 35.2526 76.0825 34.8924L76.0012 34.4375L76.1946 33.7567C76.8973 33.5679 77.5075 33.1301 77.9114 32.5249L78.2741 32.7692L78.3415 32.7727L78.8205 33.0908C79.1321 33.291 79.3737 33.5832 79.5118 33.9268C79.6498 34.2705 79.6776 34.6486 79.5912 35.0087ZM81.2797 30.591C81.1168 30.881 80.8764 31.1199 80.5855 31.2811C80.2945 31.4423 79.9645 31.5193 79.6322 31.5036L79.4525 31.4941L78.9771 31.3941L78.4314 31.0576C78.4685 30.3293 78.2391 29.6125 77.7861 29.0411L78.1227 28.7808L78.6173 28.3711C78.9393 28.1137 79.3409 27.9762 79.7531 27.9823C80.1654 27.9883 80.5627 28.1374 80.8771 28.4042C81.1915 28.6709 81.4034 29.0387 81.4765 29.4445C81.5496 29.8502 81.4793 30.2688 81.2778 30.6285L81.2797 30.591Z" fill="black"/>
</svg>
